#N canvas 429 23 450 398 12;
#X obj 108 35 tgl 132 0 on_off rcv_on_off ON/OFF 50 63 0 10 #fc90c0
#000000 #fcfcfc 0 1;
#X obj 260 34 vsl 45 128 0.01 1 1 0 volume rcv_volume volume 2 -10
0 10 #c8c8c8 #000000 #000000 0 1;
#X obj 51 196 hsl 100 25 0 127 0 0 f1 rcv_f1 frequency_1 -2 -8 0 10
#b8d779 #000000 #000000 0 1;
#X obj 51 238 hsl 100 25 0 127 0 0 vol_f1 rcv_vol_f1 volume_1 -2 -8
0 10 #929292 #000000 #000000 0 1;
#X obj 176 196 hsl 100 25 0 127 0 0 f2 rcv_f2 frequency_2 -2 -8 0 10
#b8d779 #000000 #000000 0 1;
#X obj 176 238 hsl 100 25 0 127 0 0 vol_f2 rcv_vol_f2 volume_2 -2 -8
0 10 #929292 #000000 #000000 0 1;
#X obj 301 196 hsl 100 25 0 127 0 0 f3 rcv_f3 frequency_3 -2 -8 0 10
#b8d779 #000000 #000000 0 1;
#X obj 301 238 hsl 100 25 0 127 0 0 vol_f3 rcv_vol_f3 volume_3 -2 -8
0 10 #929292 #000000 #000000 0 1;
#X obj 325 35 vsl 45 128 0 127 0 0 filter_frequency rcv_filter_frequency
VCO 0 -9 0 10 #80c3c6 #000000 #000000 0 1;
#N canvas 708 73 609 565 totally-new-core.pd 1;
#X obj 221 -89 osc~ 440;
#X obj 149 165 dac~ 1 2;
#X obj 220 -155 mtof;
#X obj 221 -128 sig~;
#X floatatom 176 -156 5 0 0 0 - - -, f 5;
#X obj 223 19 +~;
#X obj 399 -86 osc~ 440;
#X obj 398 -152 mtof;
#X obj 399 -125 sig~;
#X floatatom 354 -153 5 0 0 0 - - -, f 5;
#X obj 571 -85 osc~ 440;
#X obj 570 -151 mtof;
#X obj 571 -124 sig~;
#X floatatom 526 -152 5 0 0 0 - - -, f 5;
#X obj 221 -51 *~;
#X obj 223 93 *~;
#X obj 399 -51 *~;
#X obj 571 -51 *~;
#X floatatom 167 -118 5 0 0 0 - - -, f 5;
#X floatatom 354 -123 5 0 0 0 - - -, f 5;
#X floatatom 518 -121 5 0 0 0 - - -, f 5;
#X obj 221 -199 r f1;
#X obj 290 -71 r vol_f1;
#X obj 315 48 r volume;
#X obj 452 -53 r vol_f2;
#X obj 396 -188 r f2;
#X obj 576 -198 r f3;
#X obj 641 -63 r vol_f3;
#X msg 315 77 \$1 20;
#X obj 315 106 line~;
#X msg 291 -42 \$1 20;
#X obj 291 -13 line~;
#X msg 452 -26 \$1 20;
#X obj 452 3 line~;
#X msg 625 -18 \$1 20;
#X obj 625 11 line~;
#X obj 55 -53 r filter_frequency;
#X obj 55 -24 mtof;
#X obj 400 69 loadbang;
#X msg 400 98 1;
#X floatatom 19 1 5 0 0 0 - - -, f 5;
#X obj 223 59 vcf~ 1;
#X obj 62 35 line~;
#X msg 55 5 \$1 20;
#X connect 0 0 14 0;
#X connect 2 0 3 0;
#X connect 2 0 18 0;
#X connect 3 0 0 0;
#X connect 5 0 41 0;
#X connect 6 0 16 0;
#X connect 7 0 8 0;
#X connect 7 0 19 0;
#X connect 8 0 6 0;
#X connect 10 0 17 0;
#X connect 11 0 12 0;
#X connect 11 0 20 0;
#X connect 12 0 10 0;
#X connect 14 0 5 0;
#X connect 15 0 1 0;
#X connect 15 0 1 1;
#X connect 16 0 5 0;
#X connect 17 0 5 0;
#X connect 21 0 2 0;
#X connect 21 0 4 0;
#X connect 22 0 30 0;
#X connect 22 0 31 0;
#X connect 23 0 28 0;
#X connect 24 0 32 0;
#X connect 25 0 7 0;
#X connect 25 0 9 0;
#X connect 26 0 11 0;
#X connect 26 0 13 0;
#X connect 27 0 34 0;
#X connect 28 0 29 0;
#X connect 29 0 15 1;
#X connect 30 0 31 0;
#X connect 31 0 14 1;
#X connect 32 0 33 0;
#X connect 33 0 16 1;
#X connect 34 0 35 0;
#X connect 35 0 17 1;
#X connect 36 0 40 0;
#X connect 36 0 37 0;
#X connect 37 0 43 0;
#X connect 38 0 39 0;
#X connect 39 0 41 2;
#X connect 41 0 15 0;
#X connect 42 0 41 1;
#X connect 43 0 42 0;
#X restore 125 314 pd totally-new-core.pd;
